<svg width="572" height="98" viewBox="0 0 572 98" fill="none" xmlns="http://www.w3.org/2000/svg">
<path d="M55.704 63.384C55.704 68.1627 54.7653 72.5147 52.888 76.44C51.096 80.28 48.6213 83.608 45.464 86.424C42.392 89.24 38.7227 91.416 34.456 92.952C30.2747 94.488 25.752 95.256 20.888 95.256C17.4747 95.256 14.0613 94.36 10.648 92.568C7.23467 90.6907 3.94933 87.7467 0.792 83.736L10.264 65.176C10.8613 66.2853 11.7573 67.4373 12.952 68.632C14.1467 69.7413 15.4693 70.7227 16.92 71.576C18.456 72.4293 19.9493 73.1547 21.4 73.752C22.936 74.264 24.3013 74.52 25.496 74.52C26.52 74.52 27.5867 74.3493 28.696 74.008C29.8053 73.6667 30.8293 73.1547 31.768 72.472C32.7067 71.7893 33.432 71.0213 33.944 70.168C34.5413 69.2293 34.84 68.1627 34.84 66.968C34.84 64.92 34.1573 63.0427 32.792 61.336C31.512 59.544 29.8907 57.88 27.928 56.344C25.9653 54.7227 23.832 53.1013 21.528 51.48C19.224 49.8587 17.0907 48.152 15.128 46.36C13.2507 44.568 11.6293 42.5627 10.264 40.344C8.89867 38.1253 8.216 35.6507 8.216 32.92C8.216 28.4827 9.53867 24.344 12.184 20.504C14.8293 16.664 18.1147 13.3787 22.04 10.648C26.0507 7.832 30.4027 5.61333 35.096 3.992C39.7893 2.37066 44.2267 1.56 48.408 1.56C50.712 1.56 52.888 1.85866 54.936 2.45599C56.984 2.968 58.7333 3.864 60.184 5.144C61.72 6.33866 62.9147 7.87466 63.768 9.752C64.7067 11.6293 65.176 13.976 65.176 16.792C65.176 17.9867 65.048 19.1813 64.792 20.376C64.6213 21.5707 64.4507 22.8507 64.28 24.216L45.72 29.592C45.8907 28.9093 46.0187 28.2267 46.104 27.544C46.2747 26.8613 46.36 26.1787 46.36 25.496C46.36 22.936 45.8907 21.1013 44.952 19.992C44.0987 18.7973 42.9467 18.2 41.496 18.2C40.8133 18.2 39.96 18.456 38.936 18.968C37.9973 19.48 37.016 20.1627 35.992 21.016C35.0533 21.784 34.2427 22.7227 33.56 23.832C32.8773 24.9413 32.536 26.136 32.536 27.416C32.536 29.464 33.0907 31.1707 34.2 32.536C35.3947 33.9013 36.8453 35.1813 38.552 36.376C40.2587 37.5707 42.0933 38.808 44.056 40.088C46.104 41.2827 47.9813 42.8613 49.688 44.824C51.3947 46.7867 52.8027 49.2613 53.912 52.248C55.1067 55.1493 55.704 58.8613 55.704 63.384ZM65.52 95.128C67.4827 85.7413 69.36 76.4827 71.152 67.352C71.92 63.512 72.688 59.5013 73.456 55.32C74.224 51.1387 74.9493 47.0427 75.632 43.032C76.4 38.936 77.04 35.0107 77.552 31.256C78.1493 27.416 78.6613 23.9173 79.088 20.76C77.1253 20.504 75.12 20.4187 73.072 20.504C71.1093 20.5893 69.1467 20.3333 67.184 19.736C67.2693 18.3707 67.312 16.792 67.312 15C67.312 13.208 67.3547 11.416 67.44 9.62399C67.5253 7.66133 67.6107 5.57066 67.696 3.352C69.9147 3.52266 72.1333 3.65066 74.352 3.73599C76.5707 3.82133 78.7893 3.864 81.008 3.864C85.36 3.864 89.5413 3.77866 93.552 3.60799C97.648 3.352 101.403 3.096 104.816 2.84C108.315 2.49866 111.728 2.11466 115.056 1.688L113.648 8.6C113.221 10.5627 112.795 12.568 112.368 14.616C112.027 16.664 111.685 18.4133 111.344 19.864C109.467 20.376 107.547 20.76 105.584 21.016C103.707 21.1867 101.829 21.4427 99.952 21.784C99.3547 24.6853 98.7147 27.928 98.032 31.512C97.3493 35.0107 96.6667 38.68 95.984 42.52C95.3867 46.2747 94.7893 50.1147 94.192 54.04C93.5947 57.9653 92.9973 61.72 92.4 65.304C91.0347 73.752 89.7547 82.4987 88.56 91.544L65.52 95.128ZM153.623 70.04C152.428 74.904 150.722 79.0427 148.503 82.456C146.37 85.8693 143.81 88.6853 140.823 90.904C137.922 93.1227 134.807 94.744 131.479 95.768C128.151 96.792 124.823 97.304 121.495 97.304C119.532 97.304 117.527 96.9627 115.479 96.28C113.431 95.6827 111.596 94.744 109.975 93.464C108.354 92.184 106.988 90.5627 105.879 88.6C104.855 86.6373 104.343 84.3333 104.343 81.688C104.343 81.3467 104.343 81.0053 104.343 80.664C104.343 80.3227 104.386 79.9813 104.471 79.64C104.812 76.1413 105.367 71.9173 106.135 66.968C106.903 62.0187 107.714 56.856 108.567 51.48C109.42 46.104 110.359 40.728 111.383 35.352C112.407 29.8907 113.303 24.9413 114.071 20.504C114.924 16.0667 115.65 12.3973 116.247 9.49599C116.844 6.50933 117.228 4.67466 117.399 3.992C119.191 3.82133 121.324 3.60799 123.799 3.352C126.274 3.096 128.578 2.88266 130.711 2.712C133.356 2.456 135.959 2.19999 138.519 1.94399C136.3 12.2693 134.338 21.6133 132.631 29.976C131.863 33.56 131.095 37.144 130.327 40.728C129.644 44.312 128.962 47.5973 128.279 50.584C127.682 53.5707 127.127 56.1733 126.615 58.392C126.188 60.5253 125.804 62.2747 125.463 63.64C125.207 65.0053 124.866 66.7547 124.439 68.888C124.098 70.936 123.927 72.8133 123.927 74.52C123.927 75.8853 124.268 77.0373 124.951 77.976C125.634 78.8293 126.487 79.256 127.511 79.256C128.962 79.256 130.156 78.7013 131.095 77.592C132.034 76.3973 132.802 74.9893 133.399 73.368C134.082 71.7467 134.551 70.1253 134.807 68.504C135.148 66.7973 135.447 65.4747 135.703 64.536C136.215 62.0613 136.77 59.3307 137.367 56.344C138.05 53.272 138.69 50.1147 139.287 46.872C139.97 43.544 140.61 40.1733 141.207 36.76C141.89 33.3467 142.53 30.0187 143.127 26.776C144.578 19.2667 145.986 11.5013 147.351 3.48L166.807 2.2C166.807 2.2 166.594 3.30933 166.167 5.52799C165.74 7.74666 165.186 10.6907 164.503 14.36C163.82 18.0293 163.052 22.2107 162.199 26.904C161.431 31.5973 160.535 36.504 159.511 41.624C158.487 46.6587 157.463 51.6507 156.439 56.6C155.5 61.464 154.562 65.944 153.623 70.04ZM153.616 95.128C156.176 83.608 158.608 72.344 160.912 61.336C161.851 56.728 162.832 51.864 163.856 46.744C164.88 41.624 165.861 36.5893 166.8 31.64C167.739 26.6907 168.635 21.912 169.488 17.304C170.341 12.696 171.067 8.472 171.664 4.632C174.139 3.864 176.571 3.224 178.96 2.712C181.349 2.11466 183.781 1.60266 186.256 1.17599C188.816 0.749329 191.205 0.535995 193.424 0.535995C197.264 0.535995 200.464 1.17599 203.024 2.45599C205.669 3.736 207.803 5.48533 209.424 7.70399C211.045 9.83733 212.197 12.3547 212.88 15.256C213.563 18.1573 213.904 21.272 213.904 24.6C213.904 29.3787 213.008 33.9867 211.216 38.424C209.509 42.8613 207.163 46.8293 204.176 50.328C201.275 53.7413 197.904 56.472 194.064 58.52C190.309 60.568 186.384 61.592 182.288 61.592H180.88C180.197 64.4933 179.557 67.6507 178.96 71.064C178.363 74.4773 177.851 77.6347 177.424 80.536C176.827 83.9493 176.272 87.3627 175.76 90.776L153.616 95.128ZM189.328 16.024C188.389 21.656 187.451 26.9893 186.512 32.024C185.573 37.0587 184.549 42.4347 183.44 48.152C184.805 47.8107 186.213 47.0427 187.664 45.848C189.2 44.568 190.608 42.9467 191.888 40.984C193.168 38.936 194.192 36.5893 194.96 33.944C195.728 31.2987 196.112 28.5253 196.112 25.624C196.112 22.4667 195.387 20.0773 193.936 18.456C192.571 16.8347 191.035 16.024 189.328 16.024ZM224.26 92.44C223.492 92.44 221.956 92.568 219.652 92.824C217.433 92.9947 215.129 93.2507 212.74 93.592C210.351 93.848 208.175 94.104 206.212 94.36C204.335 94.616 203.311 94.7867 203.14 94.872C203.993 91.2027 204.847 87.1493 205.7 82.712C206.639 78.1893 207.577 73.496 208.516 68.632C209.455 63.6827 210.351 58.6907 211.204 53.656C212.057 48.6213 212.868 43.7573 213.636 39.064C215.428 28.1413 217.22 16.92 219.012 5.39999L238.98 2.2C237.017 13.6347 235.097 24.856 233.22 35.864C232.452 40.5573 231.641 45.4213 230.788 50.456C230.02 55.4907 229.209 60.4827 228.356 65.432C227.588 70.3813 226.863 75.2027 226.18 79.896C225.497 84.504 224.857 88.6853 224.26 92.44ZM293.527 29.592C293.527 34.0293 292.887 38.7653 291.607 43.8C290.327 48.7493 288.535 53.6987 286.231 58.648C283.927 63.512 281.068 68.2053 277.655 72.728C274.327 77.1653 270.53 81.0907 266.263 84.504C261.996 87.832 257.303 90.52 252.183 92.568C247.148 94.616 241.772 95.64 236.055 95.64C234.86 95.64 233.666 95.5547 232.471 95.384C231.276 95.2987 230.082 95.1707 228.887 95C231.191 83.224 233.452 71.7467 235.671 60.568C236.524 55.8747 237.42 51.0107 238.359 45.976C239.298 40.856 240.194 35.8213 241.047 30.872C241.9 25.9227 242.711 21.1867 243.479 16.664C244.332 12.1413 245.015 8.04533 245.527 4.376C249.196 3.69333 252.908 3.05333 256.663 2.45599C260.418 1.85866 264.258 1.56 268.183 1.56C272.791 1.56 276.674 2.28533 279.831 3.73599C283.074 5.18666 285.676 7.192 287.639 9.752C289.687 12.312 291.18 15.2987 292.119 18.712C293.058 22.1253 293.527 25.752 293.527 29.592ZM263.319 19.608C262.38 24.6427 261.399 29.464 260.375 34.072C259.351 38.68 258.327 43.3307 257.303 48.024C256.279 52.7173 255.255 57.624 254.231 62.744C253.207 67.864 252.226 73.4533 251.287 79.512C253.335 78.1467 255.298 76.312 257.175 74.008C259.138 71.6187 260.972 68.888 262.679 65.816C264.386 62.744 265.922 59.5013 267.287 56.088C268.738 52.6747 269.975 49.3467 270.999 46.104C272.023 42.8613 272.791 39.832 273.303 37.016C273.9 34.2 274.199 31.768 274.199 29.72C274.199 26.5627 273.303 24.088 271.511 22.296C269.804 20.504 267.074 19.608 263.319 19.608ZM325.619 91.928C323.23 92.3547 320.627 92.8667 317.811 93.464C314.995 94.0613 312.52 94.616 310.387 95.128C311.411 91.4587 312.392 87.3627 313.331 82.84C314.355 78.232 315.336 73.4107 316.275 68.376C317.299 63.3413 318.238 58.264 319.091 53.144C320.03 47.9387 320.926 42.9467 321.779 38.168C323.571 26.8187 325.363 15.0853 327.155 2.96799L370.035 0.791992L366.323 16.536H346.227L342.259 39.32C344.904 39.2347 347.422 39.192 349.811 39.192C351.774 39.192 353.779 39.192 355.827 39.192C357.875 39.192 359.454 39.1493 360.563 39.064C360.307 41.4533 359.966 43.8 359.539 46.104C359.198 48.408 358.856 50.712 358.515 53.016C357.406 53.016 355.827 53.016 353.779 53.016C351.731 52.9307 349.598 52.8453 347.379 52.76C345.246 52.6747 342.814 52.5893 340.083 52.504L334.195 90.264C331.294 90.776 328.435 91.3307 325.619 91.928ZM400.604 92.44C398.471 92.7813 396.124 93.1653 393.564 93.592C391.004 94.0187 388.7 94.4027 386.652 94.744C386.993 91.928 387.335 89.1547 387.676 86.424C387.932 84.0347 388.145 81.6453 388.316 79.256C388.572 76.8667 388.785 74.8187 388.956 73.112H377.82L372.7 91.544C370.823 91.8 368.604 92.0987 366.044 92.44C363.484 92.696 361.095 92.952 358.876 93.208C356.145 93.5493 353.457 93.8907 350.812 94.232C354.225 82.8827 357.596 71.704 360.924 60.696C362.289 56.088 363.697 51.2667 365.148 46.232C366.684 41.1973 368.177 36.2053 369.628 31.256C371.164 26.2213 372.615 21.4 373.98 16.792C375.345 12.184 376.54 7.96 377.564 4.12C383.367 3.69333 389.255 3.18133 395.228 2.58399C401.287 1.98666 407.175 1.17599 412.892 0.151993C412.636 2.88266 412.337 6.296 411.996 10.392C411.74 14.4027 411.484 18.7973 411.228 23.576C410.972 28.3547 410.716 33.3467 410.46 38.552C410.204 43.7573 409.948 48.8773 409.692 53.912C409.265 65.688 408.796 78.1893 408.284 91.416C405.724 91.8427 403.164 92.184 400.604 92.44ZM380.892 60.312C381.233 60.312 381.831 60.312 382.684 60.312C383.623 60.2267 384.561 60.184 385.5 60.184C386.524 60.0987 387.463 60.056 388.316 60.056C389.169 59.9707 389.767 59.8853 390.108 59.8C390.108 59.288 390.151 58.4347 390.236 57.24C390.407 55.96 390.535 54.552 390.62 53.016C390.791 51.3947 390.961 49.6453 391.132 47.768C391.303 45.8907 391.473 44.056 391.644 42.264C391.985 37.912 392.412 33.2187 392.924 28.184L393.692 17.048L391.772 17.176L388.828 28.184L380.892 60.312ZM463.531 67.48C461.483 72.1733 459.179 76.2693 456.619 79.768C454.144 83.1813 451.499 86.0827 448.683 88.472C445.952 90.776 443.179 92.4827 440.363 93.592C437.547 94.7013 434.816 95.256 432.171 95.256C429.526 95.256 427.094 94.6587 424.875 93.464C422.742 92.2693 420.864 90.4773 419.243 88.088C417.622 85.6987 416.299 82.7547 415.275 79.256C414.336 75.7573 413.867 71.6613 413.867 66.968C413.867 58.9467 414.976 51.0533 417.195 43.288C419.414 35.4373 422.528 28.3973 426.539 22.168C430.55 15.9387 435.286 10.9467 440.747 7.19199C446.294 3.352 452.395 1.432 459.051 1.432C461.099 1.432 463.062 1.85867 464.939 2.712C466.816 3.56533 468.438 4.76 469.803 6.296C471.168 7.832 472.235 9.70933 473.003 11.928C473.856 14.1467 474.283 16.6213 474.283 19.352C474.283 19.864 474.283 20.4187 474.283 21.016C474.283 21.528 474.24 22.0827 474.155 22.68L457.387 27.16C456.363 25.0267 455.168 23.96 453.803 23.96C452.438 23.96 450.987 24.7707 449.451 26.392C448 27.928 446.55 29.976 445.099 32.536C443.648 35.0107 442.24 37.8267 440.875 40.984C439.51 44.056 438.315 47.1707 437.291 50.328C436.267 53.4853 435.414 56.5147 434.731 59.416C434.134 62.232 433.835 64.536 433.835 66.328C433.835 69.0587 434.176 70.9787 434.859 72.088C435.627 73.1973 436.608 73.752 437.803 73.752C438.742 73.752 439.808 73.4107 441.003 72.728C442.198 71.96 443.307 71.0213 444.331 69.912C445.355 68.7173 446.294 67.3947 447.147 65.944C448 64.4933 448.598 63.0427 448.939 61.592L463.531 67.48ZM462.899 95.128L479.667 4.12L520.115 0.663994C519.518 2.54133 519.006 4.46133 518.579 6.424C518.152 8.04533 517.726 9.752 517.299 11.544C516.958 13.2507 516.659 14.7867 516.403 16.152C515.55 16.2373 514.312 16.3227 512.691 16.408C511.155 16.408 509.491 16.4507 507.699 16.536C505.907 16.536 504.072 16.536 502.195 16.536C500.403 16.536 498.824 16.536 497.459 16.536L492.979 39.448C495.624 39.2773 498.099 39.1493 500.403 39.064C502.28 38.9787 504.2 38.936 506.163 38.936C508.126 38.936 509.576 38.8933 510.515 38.808C510.174 41.1973 509.832 43.544 509.491 45.848C509.235 48.152 508.894 50.4987 508.467 52.888C507.614 52.9733 506.206 53.0587 504.243 53.144C502.366 53.144 500.446 53.1867 498.483 53.272C496.264 53.3573 493.832 53.4427 491.187 53.528L486.835 77.08L505.523 74.136L504.243 88.728L462.899 95.128ZM562.204 63.384C562.204 68.1627 561.265 72.5147 559.388 76.44C557.596 80.28 555.121 83.608 551.964 86.424C548.892 89.24 545.223 91.416 540.956 92.952C536.775 94.488 532.252 95.256 527.388 95.256C523.975 95.256 520.561 94.36 517.148 92.568C513.735 90.6907 510.449 87.7467 507.292 83.736L516.764 65.176C517.361 66.2853 518.257 67.4373 519.452 68.632C520.647 69.7413 521.969 70.7227 523.42 71.576C524.956 72.4293 526.449 73.1547 527.9 73.752C529.436 74.264 530.801 74.52 531.996 74.52C533.02 74.52 534.087 74.3493 535.196 74.008C536.305 73.6667 537.329 73.1547 538.268 72.472C539.207 71.7893 539.932 71.0213 540.444 70.168C541.041 69.2293 541.34 68.1627 541.34 66.968C541.34 64.92 540.657 63.0427 539.292 61.336C538.012 59.544 536.391 57.88 534.428 56.344C532.465 54.7227 530.332 53.1013 528.028 51.48C525.724 49.8587 523.591 48.152 521.628 46.36C519.751 44.568 518.129 42.5627 516.764 40.344C515.399 38.1253 514.716 35.6507 514.716 32.92C514.716 28.4827 516.039 24.344 518.684 20.504C521.329 16.664 524.615 13.3787 528.54 10.648C532.551 7.832 536.903 5.61333 541.596 3.992C546.289 2.37066 550.727 1.56 554.908 1.56C557.212 1.56 559.388 1.85866 561.436 2.45599C563.484 2.968 565.233 3.864 566.684 5.144C568.22 6.33866 569.415 7.87466 570.268 9.752C571.207 11.6293 571.676 13.976 571.676 16.792C571.676 17.9867 571.548 19.1813 571.292 20.376C571.121 21.5707 570.951 22.8507 570.78 24.216L552.22 29.592C552.391 28.9093 552.519 28.2267 552.604 27.544C552.775 26.8613 552.86 26.1787 552.86 25.496C552.86 22.936 552.391 21.1013 551.452 19.992C550.599 18.7973 549.447 18.2 547.996 18.2C547.313 18.2 546.46 18.456 545.436 18.968C544.497 19.48 543.516 20.1627 542.492 21.016C541.553 21.784 540.743 22.7227 540.06 23.832C539.377 24.9413 539.036 26.136 539.036 27.416C539.036 29.464 539.591 31.1707 540.7 32.536C541.895 33.9013 543.345 35.1813 545.052 36.376C546.759 37.5707 548.593 38.808 550.556 40.088C552.604 41.2827 554.481 42.8613 556.188 44.824C557.895 46.7867 559.303 49.2613 560.412 52.248C561.607 55.1493 562.204 58.8613 562.204 63.384Z" fill="#E88C6F"/>
</svg>
